# xmcd CD database generated by RipIT
#
# Track frame offsets:
# 150
# 13722
# 30690
# 37400
# 53112
# 78465
# 88252
# 105312
# 115715
# 124445
# 132102
# 143207
# 151670
# 163225
#
# Disc length: 2388 seconds
#
# Revision: 1
# Processed by: cddbd v1.5.2PL0 Copyright (c) Steve Scherf et al.
# Submitted via: RipIT 3.9.0 www.suwald.com/ripit/ripit.html on 2012-01-08 at 16:51
#
DISCID=ba09520e
DTITLE=brassmen - brassmen
DYEAR=1996
DGENRE=Gospel
TTITLE0=Thats a-plenty
TTITLE1=Kraken
TTITLE2=Somebody is knocking
TTITLE3=Gospel-Medley
TTITLE4=Tuba Tiger Rag
TTITLE5=Were you there
TTITLE6=Halleluja
TTITLE7=Jesus, zu dir kan ich so kommen
TTITLE8=Bahnt einen Weg unserm Gott
TTITLE9=Herr, das Licht deiner Liebe
TTITLE10=Ich will dir danken
TTITLE11=Du bist der Weg und die Wahrheit
TTITLE12=The girl with the flaxen hair
TTITLE13=La cumparsita
EXTD=
EXTT0=Henry Craemer
EXTT1=Chris Hazell
EXTT2=Traditional
EXTT3=Traditional
EXTT4=Luther Henderson
EXTT5=Traditional
EXTT6=Georg Friedrich Händel
EXTT7=Johannes Nitsch
EXTT8=Lothar Kosse
EXTT9=Graham Kendrick (Shine, Jesus, shine)
EXTT10=Johannes Nitsch
EXTT11=Johannes Nitsch
EXTT12=Claude Debussy (La Fille aux cheveux de lin)
EXTT13=Matos Gerardo Hernan Rodriguez
PLAYORDER=
